<?xml version="1.0" standalone="no"?>
<!DOCTYPE svg PUBLIC "-//W3C//DTD SVG 20010904//EN"
 "http://www.w3.org/TR/2001/REC-SVG-20010904/DTD/svg10.dtd">
<svg version="1.0" xmlns="http://www.w3.org/2000/svg"
 width="319.000000pt" height="319.000000pt" viewBox="0 0 319.000000 319.000000"
 preserveAspectRatio="xMidYMid meet">
<metadata>
Created by potrace 1.11, written by Peter Selinger 2001-2013
</metadata>
<g transform="translate(0.000000,319.000000) scale(0.100000,-0.100000)"
fill="#000000" stroke="none">
<path d="M1490 3140 c-19 -19 -20 -33 -19 -286 0 -146 -2 -268 -4 -270 -2 -2
-252 -4 -555 -4 l-551 -1 -16 -22 c-22 -32 -21 -189 2 -208 13 -12 115 -14
564 -14 301 -1 550 -3 553 -5 7 -8 8 -40 7 -240 l-1 -196 -139 138 c-95 95
-145 138 -161 138 -27 0 -70 -44 -129 -135 -184 -282 -193 -552 -28 -794 38
-56 146 -165 206 -209 67 -48 82 -44 146 41 30 41 55 83 55 95 0 14 -18 35
-52 60 -62 46 -134 121 -171 177 -67 104 -73 274 -13 390 12 23 15 21 150
-113 l137 -136 -1 -743 0 -742 22 -15 c16 -11 46 -16 103 -16 134 0 120 -90
121 775 l0 746 136 135 136 136 20 -45 c55 -124 46 -264 -24 -374 -34 -54
-157 -183 -175 -183 -16 0 -39 -32 -39 -55 0 -21 79 -140 104 -157 34 -23 73
0 189 112 228 219 283 472 165 758 -17 42 -34 79 -38 82 -4 3 -9 13 -13 22
-14 38 -124 179 -144 184 -32 9 -51 -6 -190 -145 l-128 -128 0 221 0 221 549
0 c366 -1 556 3 570 10 19 9 21 20 24 107 3 93 2 98 -21 113 -22 14 -88 16
-567 15 -298 -1 -544 1 -548 4 -3 4 -6 127 -6 275 -1 212 -4 271 -15 284 -11
14 -32 17 -102 17 -75 0 -92 -3 -109 -20z"/>
</g>
</svg>
